<?xml version="1.0" standalone="no"?>
<!DOCTYPE svg PUBLIC "-//W3C//DTD SVG 20010904//EN"
 "http://www.w3.org/TR/2001/REC-SVG-20010904/DTD/svg10.dtd">
<svg version="1.0" xmlns="http://www.w3.org/2000/svg"
 width="512.000000pt" height="512.000000pt" viewBox="0 0 512.000000 512.000000"
 preserveAspectRatio="xMidYMid meet">
<metadata>
Created by potrace 1.14, written by Peter Selinger 2001-2017
</metadata>
<g transform="translate(0.000000,512.000000) scale(0.100000,-0.100000)"
fill="#000000" stroke="none">
<path d="M2740 5083 c-126 -68 -266 -156 -350 -218 -47 -35 -103 -70 -125 -80
-46 -19 -183 -21 -280 -5 -155 26 -274 31 -443 17 -600 -50 -1060 -281 -1313
-660 -120 -180 -193 -388 -217 -620 -15 -148 -7 -539 13 -662 7 -43 16 -96 22
-125 27 -150 122 -458 182 -593 129 -289 241 -524 426 -892 160 -318 250 -511
325 -695 113 -279 174 -417 223 -497 l31 -53 462 0 461 0 13 43 c7 23 14 56
17 72 2 17 6 41 9 55 4 25 9 151 19 565 7 267 9 288 41 500 17 107 70 221 125
268 24 21 59 39 93 47 260 62 461 -230 585 -850 19 -94 21 -102 41 -215 50
-287 70 -365 113 -440 l23 -40 350 -3 351 -2 59 38 c32 21 84 67 114 102 60
69 170 228 170 247 0 6 4 13 8 15 10 4 148 283 187 378 14 36 32 79 40 95 75
165 219 552 308 830 38 118 144 475 152 509 2 12 17 73 33 137 44 171 75 363
98 604 16 157 9 667 -10 760 -2 11 -7 43 -10 70 -4 28 -9 57 -12 66 -2 10 -6
30 -8 45 -15 115 -102 375 -176 529 -48 100 -166 297 -189 315 -3 3 -18 21
-33 41 -35 48 -154 167 -215 216 -27 21 -49 41 -51 46 -2 4 -7 7 -12 7 -4 0
-31 16 -60 35 l-52 35 -737 -1 -736 0 -65 -36z"/>
</g>
</svg>
